# xmcd
#
# Track frame offsets:
#	150
#	14026
#	32143
#	46811
#	60955
#	73984
#	94431
#	106185
#	121738
#	143851
#	156551
#	171861
#	182256
#	195172
#	213442
#	228009
#	242950
#	261441
#	274917
#	290027
#	305736
#	319392
#	332204
#
# Disc length: 4672 seconds
#
# Revision: 0
# Processed by: cddbd v1.5.2PL0 Copyright (c) Steve Scherf et al.
# Submitted via: dBpowerAMP V4.0
#
DISCID=5e123e17
DTITLE=Various Artist - Los 3 Fernandez
DYEAR=2007
DGENRE=Country
TTITLE0=Tracquince Primaveras - Vicente - Vicente Fernandez
TTITLE1=Si tu Supieras - Alejandro - Alejandro Fernandez
TTITLE2=Track0fueron Tres Años - Pedro - Pedro Fernandez
TTITLE3=Mi Niña Bonita - Vicente - Vicente Fernandez
TTITLE4=Mátalas - Alejandro - Alejandro Fernandez
TTITLE5=Laberintos de Pasión - Pedro - Pedro Fernandez
TTITLE6=En tu Día de Cumpleaños - Vicente - Vicente Fernandez
TTITLE7=Tantita Pena - Alejandro - Alejandro Fernandez
TTITLE8=La Mujer Que Amas - Pedro - Pedro Fernandez
TTITLE9=Despierta - Vicente - Vicente Fernandez
TTITLE10=La Mitad Que me Faltaba - Alejandro - Alejandro Fernandez
TTITLE11=En el Último Trago - Pedro - Pedro Fernandez
TTITLE12=Las Mañanitas - Vicente - Vicente Fernandez
TTITLE13=Nube Viajera - Alejandro - Alejandro Fernandez
TTITLE14=Un Mundo Raro - Pedro - Pedro Fernandez
TTITLE15=Que de Raro Tiene - Vicente - Vicente Fernandez
TTITLE16=Para Vivir - Alejandro - Alejandro Fernandez
TTITLE17=Paloma Querida - Pedro - Pedro Fernandez
TTITLE18=Miraron Llorar a un Hombre - Vicente Fernandez
TTITLE19=El Potrillo - Alejandro - Alejandro Fernandez
TTITLE20=Ella - Pedro - Pedro Fernandez
TTITLE21=La Ley Del Monte - Vicente - Vicente Fernandez
TTITLE22=Que Voy a Hacer Con mi Amor - Alejandro - Alejandro Fernandez
EXTD=Los 3 Fernandez,Alejandro Fernandez
EXTT0=
EXTT1=
EXTT2=
EXTT3=
EXTT4=
EXTT5=
EXTT6=
EXTT7=
EXTT8=
EXTT9=
EXTT10=
EXTT11=
EXTT12=
EXTT13=
EXTT14=
EXTT15=
EXTT16=
EXTT17=
EXTT18=
EXTT19=
EXTT20=
EXTT21=
EXTT22=
PLAYORDER=
